<svg xmlns="http://www.w3.org/2000/svg" width="1024" height="1024" viewBox="0 0 10240 10240"><path d="M2602.081 6403.056c1003.61-1610.042 3800.523-1548.494 5322.113-1045.353 1019.227 371.889 1209.408 1454.768-234.161 1969.55-1443.57 514.781-6091.561 685.845-5087.952-924.197Z" style="fill:#000;fill-opacity:.4" transform="matrix(1.37308 0 0 1.38855 -2242.919 -1796.342)"/><path d="M3015 6463c-33-2-106.456 4.071-189.456-3.929-150-16-150-16-220-62-537.538-585.533-573.187-1462.828-402.338-1991.715 170.848-528.887 492.215-1032.767 1449.22-1548.249 957.004-515.482 2577.89-540.644 3327.93-142.1S7734 3580 7786 3880c18 108 43 351 37 363-2 4-32 26-65 48-91 62-444 361-470 398-24 34-431 454-528 545-174 162-320 265-520 366-85 42-198 94-251 113-242 91-582 166-1029 228-202 27-575 120-719 178-126 51-226 100-363 179-161 93-223 121-298 137-62 13-417 38-480 33-14-1-52-3-85-5z" style="fill:#f7e018" transform="matrix(1.37308 0 0 1.38855 -2242.919 -1796.342)"/><path d="M7823.424 4241.427c-24.016 19.233-44.298 35.444-65.428 49.579-91 62-444.002 360.989-470.002 397.988-24 34-430.996 454.009-527.996 545.009-174 162-319.995 264.997-519.994 365.997-85 42-198.01 93.998-251.01 112.998-242 91-581.995 166-1028.994 228-202 27-574.999 120.003-718.998 178.003-126 51-225.997 99.998-362.997 178.998-161 93-223.008 121.001-298.008 137.001-62 13-417.003 38-480.003 33-14-1-51.99-3.002-84.99-5.002-33-2-126.998-9.993-209.998-17.993-76.274-8.175-152.03-20.245-199.26-47.807 105 92 326.255 208.807 499.255 275.807 220 85 565.994 149.989 959.993 180.989 189 15 648.013-17.993 1010.012-72.993 471-70 1011.995-242.004 1309.995-414.004 81-47 242.997-153.996 262.997-173.995 8-8 49.004-40.006 91.004-73.006 83-64 265.002-244.997 356.002-354.997 76-91 188.995-215.999 295.995-329.999 195-204 342.002-497.002 409.002-810.002 26.57-144.19 25.391-275.984 23.423-383.571z" style="fill:#a37d05" transform="matrix(1.37308 0 0 1.38855 -2242.919 -1796.342)"/><path d="M2016.478 5903.987c-245.782-55.542-453.117-174.957-737.344-423.507-192.232-168.015-332.286-379.074-381.717-577.637-67.795-521 250.217-1069.646 477.019-1403.8 257.272-372.883 738.971-714.232 1079.664-958.004 340.693-243.772 1013.016-569.588 1482.104-654.702 129.07-20.828 267.443-52.515 290.932-6.368 40.369 181.745-164.34 308.74-419.33 527.805-308.745 268.051-614.516 564.29-762.809 690.648-200.873 176.98-489.887 498.31-646.803 651.924-101.972 108.335-195.152 245.658-252.647 404.068-30.208 93.033-37.073 134.69-37.073 269.38-1.373 226.333 26.088 313.811 221.066 713.714 160.65 331.863 160.65 331.863 160.65 488.77 0 180.51-13.73 212.448-116.711 266.601-49.431 24.994-82.385 30.548-171.635 29.16-60.416-1.389-144.174-9.72-185.366-18.052z" style="fill:#fff99f;stroke-width:1.38079"/><path d="M5583.007 5668.485c118.161 192.932 271.892 334.744 543.783 334.744 228.408 0 374.317-114.158 374.317-271.892 0-189.02-149.913-255.97-401.32-365.936l-137.808-59.127c-397.78-169.467-662.037-381.766-662.037-830.573 0-413.424 315.003-728.148 807.294-728.148 350.48 0 602.445 121.978 784.017 441.358l-429.254 275.616c-94.51-169.467-196.47-236.229-354.763-236.229-161.459 0-263.79 102.425-263.79 236.23 0 165.369 102.425 232.317 338.933 334.742l137.808 59.034c468.361 200.846 732.804 405.603 732.804 865.956 0 496.296-389.867 768.187-913.444 768.187-511.939 0-842.678-243.957-1004.51-563.71zm-1947.284 47.768c86.596 153.637 165.37 283.53 354.763 283.53 181.106 0 295.356-70.859 295.356-346.382V3779.025h551.232V5660.85c0 570.786-334.65 830.573-823.124 830.573-441.358 0-696.955-228.408-826.941-503.512z"/></svg>